<mxfile host="Electron" modified="2024-04-23T08:13:07.282Z" agent="Mozilla/5.0 (Windows NT 10.0; Win64; x64) AppleWebKit/537.36 (KHTML, like Gecko) draw.io/24.2.5 Chrome/120.0.6099.109 Electron/28.1.0 Safari/537.36" etag="1fu5Iii-OG875Bh5Cq7P" version="24.2.5" type="device">
  <diagram id="C5RBs43oDa-KdzZeNtuy" name="Page-1">
    <mxGraphModel dx="989" dy="582" grid="1" gridSize="10" guides="1" tooltips="1" connect="1" arrows="1" fold="1" page="1" pageScale="1" pageWidth="827" pageHeight="1169" math="0" shadow="0">
      <root>
        <mxCell id="WIyWlLk6GJQsqaUBKTNV-0" />
        <mxCell id="WIyWlLk6GJQsqaUBKTNV-1" parent="WIyWlLk6GJQsqaUBKTNV-0" />
        <mxCell id="8jqSvEsaCP3s1C11XtP2-2" value="" style="edgeStyle=orthogonalEdgeStyle;rounded=0;orthogonalLoop=1;jettySize=auto;html=1;" edge="1" parent="WIyWlLk6GJQsqaUBKTNV-1" source="8jqSvEsaCP3s1C11XtP2-0" target="8jqSvEsaCP3s1C11XtP2-1">
          <mxGeometry relative="1" as="geometry" />
        </mxCell>
        <mxCell id="8jqSvEsaCP3s1C11XtP2-0" value="start" style="ellipse;whiteSpace=wrap;html=1;aspect=fixed;" vertex="1" parent="WIyWlLk6GJQsqaUBKTNV-1">
          <mxGeometry x="360" y="40" width="80" height="80" as="geometry" />
        </mxCell>
        <mxCell id="8jqSvEsaCP3s1C11XtP2-4" value="" style="edgeStyle=orthogonalEdgeStyle;rounded=0;orthogonalLoop=1;jettySize=auto;html=1;" edge="1" parent="WIyWlLk6GJQsqaUBKTNV-1" source="8jqSvEsaCP3s1C11XtP2-1" target="8jqSvEsaCP3s1C11XtP2-3">
          <mxGeometry relative="1" as="geometry" />
        </mxCell>
        <mxCell id="8jqSvEsaCP3s1C11XtP2-1" value="maak de volgende variabelen aan:&lt;div&gt;boodschappenlijst: dict&lt;/div&gt;&lt;div&gt;adminInlog: tuple (admin, Welkom01)&amp;nbsp;&lt;/div&gt;" style="rounded=0;whiteSpace=wrap;html=1;" vertex="1" parent="WIyWlLk6GJQsqaUBKTNV-1">
          <mxGeometry x="297.5" y="160" width="205" height="60" as="geometry" />
        </mxCell>
        <mxCell id="8jqSvEsaCP3s1C11XtP2-6" value="" style="edgeStyle=orthogonalEdgeStyle;rounded=0;orthogonalLoop=1;jettySize=auto;html=1;" edge="1" parent="WIyWlLk6GJQsqaUBKTNV-1" source="8jqSvEsaCP3s1C11XtP2-3" target="8jqSvEsaCP3s1C11XtP2-5">
          <mxGeometry relative="1" as="geometry" />
        </mxCell>
        <mxCell id="8jqSvEsaCP3s1C11XtP2-3" value="laad de database kassa.csv in" style="whiteSpace=wrap;html=1;rounded=0;" vertex="1" parent="WIyWlLk6GJQsqaUBKTNV-1">
          <mxGeometry x="340" y="260" width="120" height="60" as="geometry" />
        </mxCell>
        <mxCell id="8jqSvEsaCP3s1C11XtP2-12" value="" style="edgeStyle=orthogonalEdgeStyle;rounded=0;orthogonalLoop=1;jettySize=auto;html=1;" edge="1" parent="WIyWlLk6GJQsqaUBKTNV-1" source="8jqSvEsaCP3s1C11XtP2-5" target="8jqSvEsaCP3s1C11XtP2-7">
          <mxGeometry relative="1" as="geometry" />
        </mxCell>
        <mxCell id="8jqSvEsaCP3s1C11XtP2-5" value="Voer het product in, of voer&lt;div&gt;stop in als u de bon wilt zien&lt;/div&gt;" style="shape=parallelogram;perimeter=parallelogramPerimeter;whiteSpace=wrap;html=1;fixedSize=1;" vertex="1" parent="WIyWlLk6GJQsqaUBKTNV-1">
          <mxGeometry x="310" y="360" width="180" height="60" as="geometry" />
        </mxCell>
        <mxCell id="8jqSvEsaCP3s1C11XtP2-14" value="ja" style="edgeStyle=orthogonalEdgeStyle;rounded=0;orthogonalLoop=1;jettySize=auto;html=1;" edge="1" parent="WIyWlLk6GJQsqaUBKTNV-1" source="8jqSvEsaCP3s1C11XtP2-7" target="8jqSvEsaCP3s1C11XtP2-13">
          <mxGeometry relative="1" as="geometry" />
        </mxCell>
        <mxCell id="8jqSvEsaCP3s1C11XtP2-24" value="nee" style="edgeStyle=orthogonalEdgeStyle;rounded=0;orthogonalLoop=1;jettySize=auto;html=1;" edge="1" parent="WIyWlLk6GJQsqaUBKTNV-1" source="8jqSvEsaCP3s1C11XtP2-7" target="8jqSvEsaCP3s1C11XtP2-23">
          <mxGeometry relative="1" as="geometry" />
        </mxCell>
        <mxCell id="8jqSvEsaCP3s1C11XtP2-7" value="heeft de gebruiker stop getypt?" style="rhombus;whiteSpace=wrap;html=1;" vertex="1" parent="WIyWlLk6GJQsqaUBKTNV-1">
          <mxGeometry x="360" y="460" width="80" height="80" as="geometry" />
        </mxCell>
        <mxCell id="8jqSvEsaCP3s1C11XtP2-16" value="" style="edgeStyle=orthogonalEdgeStyle;rounded=0;orthogonalLoop=1;jettySize=auto;html=1;" edge="1" parent="WIyWlLk6GJQsqaUBKTNV-1" source="8jqSvEsaCP3s1C11XtP2-13" target="8jqSvEsaCP3s1C11XtP2-15">
          <mxGeometry relative="1" as="geometry" />
        </mxCell>
        <mxCell id="8jqSvEsaCP3s1C11XtP2-13" value="bereken bon" style="rounded=0;whiteSpace=wrap;html=1;" vertex="1" parent="WIyWlLk6GJQsqaUBKTNV-1">
          <mxGeometry x="178" y="470" width="120" height="60" as="geometry" />
        </mxCell>
        <mxCell id="8jqSvEsaCP3s1C11XtP2-19" value="" style="edgeStyle=orthogonalEdgeStyle;rounded=0;orthogonalLoop=1;jettySize=auto;html=1;" edge="1" parent="WIyWlLk6GJQsqaUBKTNV-1" source="8jqSvEsaCP3s1C11XtP2-15" target="8jqSvEsaCP3s1C11XtP2-18">
          <mxGeometry relative="1" as="geometry" />
        </mxCell>
        <mxCell id="8jqSvEsaCP3s1C11XtP2-15" value="print bon" style="shape=parallelogram;perimeter=parallelogramPerimeter;whiteSpace=wrap;html=1;fixedSize=1;" vertex="1" parent="WIyWlLk6GJQsqaUBKTNV-1">
          <mxGeometry x="20" y="470" width="120" height="60" as="geometry" />
        </mxCell>
        <mxCell id="8jqSvEsaCP3s1C11XtP2-18" value="reset boodschappenlijst" style="rounded=0;whiteSpace=wrap;html=1;" vertex="1" parent="WIyWlLk6GJQsqaUBKTNV-1">
          <mxGeometry x="20" y="360" width="120" height="60" as="geometry" />
        </mxCell>
        <mxCell id="8jqSvEsaCP3s1C11XtP2-22" value="" style="endArrow=classic;html=1;rounded=0;" edge="1" parent="WIyWlLk6GJQsqaUBKTNV-1" source="8jqSvEsaCP3s1C11XtP2-18" target="8jqSvEsaCP3s1C11XtP2-5">
          <mxGeometry width="50" height="50" relative="1" as="geometry">
            <mxPoint x="120" y="270" as="sourcePoint" />
            <mxPoint x="170" y="220" as="targetPoint" />
          </mxGeometry>
        </mxCell>
        <mxCell id="8jqSvEsaCP3s1C11XtP2-26" value="ja" style="edgeStyle=orthogonalEdgeStyle;rounded=0;orthogonalLoop=1;jettySize=auto;html=1;" edge="1" parent="WIyWlLk6GJQsqaUBKTNV-1" source="8jqSvEsaCP3s1C11XtP2-23" target="8jqSvEsaCP3s1C11XtP2-25">
          <mxGeometry relative="1" as="geometry" />
        </mxCell>
        <mxCell id="8jqSvEsaCP3s1C11XtP2-23" value="staat het product in de database?" style="whiteSpace=wrap;html=1;shape=rhombus;perimeter=rhombusPerimeter;" vertex="1" parent="WIyWlLk6GJQsqaUBKTNV-1">
          <mxGeometry x="360" y="584.5" width="80" height="80" as="geometry" />
        </mxCell>
        <mxCell id="8jqSvEsaCP3s1C11XtP2-25" value="voeg product en aantal toe aan de boodschappenlijst" style="rounded=0;whiteSpace=wrap;html=1;" vertex="1" parent="WIyWlLk6GJQsqaUBKTNV-1">
          <mxGeometry x="480" y="595" width="120" height="60" as="geometry" />
        </mxCell>
        <mxCell id="8jqSvEsaCP3s1C11XtP2-27" value="" style="endArrow=classic;html=1;rounded=0;" edge="1" parent="WIyWlLk6GJQsqaUBKTNV-1" source="8jqSvEsaCP3s1C11XtP2-25" target="8jqSvEsaCP3s1C11XtP2-5">
          <mxGeometry width="50" height="50" relative="1" as="geometry">
            <mxPoint x="550" y="540" as="sourcePoint" />
            <mxPoint x="600" y="490" as="targetPoint" />
            <Array as="points">
              <mxPoint x="540" y="390" />
            </Array>
          </mxGeometry>
        </mxCell>
        <mxCell id="8jqSvEsaCP3s1C11XtP2-28" value="output:&lt;div&gt;&lt;span style=&quot;background-color: initial;&quot;&gt;Product komt niet voor, probeer opnieuw&lt;/span&gt;&lt;/div&gt;" style="shape=parallelogram;perimeter=parallelogramPerimeter;whiteSpace=wrap;html=1;fixedSize=1;" vertex="1" parent="WIyWlLk6GJQsqaUBKTNV-1">
          <mxGeometry x="480" y="690" width="120" height="60" as="geometry" />
        </mxCell>
        <mxCell id="8jqSvEsaCP3s1C11XtP2-29" value="nee" style="endArrow=classic;html=1;rounded=0;" edge="1" parent="WIyWlLk6GJQsqaUBKTNV-1" source="8jqSvEsaCP3s1C11XtP2-23" target="8jqSvEsaCP3s1C11XtP2-28">
          <mxGeometry width="50" height="50" relative="1" as="geometry">
            <mxPoint x="270" y="710" as="sourcePoint" />
            <mxPoint x="320" y="660" as="targetPoint" />
            <Array as="points">
              <mxPoint x="400" y="720" />
            </Array>
          </mxGeometry>
        </mxCell>
        <mxCell id="8jqSvEsaCP3s1C11XtP2-30" value="" style="endArrow=classic;html=1;rounded=0;" edge="1" parent="WIyWlLk6GJQsqaUBKTNV-1" source="8jqSvEsaCP3s1C11XtP2-28" target="8jqSvEsaCP3s1C11XtP2-5">
          <mxGeometry width="50" height="50" relative="1" as="geometry">
            <mxPoint x="640" y="530" as="sourcePoint" />
            <mxPoint x="690" y="480" as="targetPoint" />
            <Array as="points">
              <mxPoint x="650" y="720" />
              <mxPoint x="650" y="390" />
            </Array>
          </mxGeometry>
        </mxCell>
      </root>
    </mxGraphModel>
  </diagram>
</mxfile>
